<svg class="svg-icon" style="width: 1em; height: 1em;vertical-align: middle;fill: currentColor;overflow: hidden;" viewBox="0 0 1024 1024" version="1.1" xmlns="http://www.w3.org/2000/svg"><path d="M384.6 682c-17.5-17.5-45.9-17.5-63.3 0-17.5 17.5-17.5 45.9 0 63.3L353 777c17.5 17.5 45.9 17.5 63.3 0 17.5-17.5 17.5-45.9 0-63.3L384.6 682z" fill="" /><path d="M692.6 110.6c-67.1-0.1-131.8 25.2-181.1 70.9l-0.1-0.1-0.1 0.1c-49.2-45.6-113.9-71-181-70.9-147.4 0-266.8 119.4-266.8 266.8-0.1 63.7 22.7 125.3 64.2 173.6 6.7 7.8 66.8 67.6 66.8 67.6 17.5 17.5 45.9 17.5 63.4 0s17.5-45.9 0-63.3L198.6 496c-29.4-32.5-45.7-74.8-45.6-118.7 0-97.8 79.3-177.2 177.2-177.2 35.9-0.1 70.9 10.8 100.4 31.2 28.2 19.2 80.8 70.5 80.8 70.5s52.3-51 80.6-70.4c29.6-20.4 64.7-31.4 100.6-31.3 97.8 0 177.2 79.3 177.2 177.2 0.1 42.3-15.1 83.3-42.7 115.3L479.7 840.4c-17.5 17.5-17.5 45.9 0 63.3 17.5 17.5 45.9 17.5 63.3 0l330.1-330.1 0.8-0.8c2.6-2.5 11-10.6 22-23 41-48.2 63.4-109.3 63.3-172.6 0.1-147.2-119.3-266.6-266.6-266.6z" fill="" /></svg>